<svg t="1596505083862" class="icon" viewBox="0 0 1024 1024" version="1.1" xmlns="http://www.w3.org/2000/svg" p-id="25560" width="42" height="42">
<style>
    .icon {
        fill: #3b5998;
        background-color: white;
    }
    .icon:hover {
        fill: white !important;
        background-color: #3b5998;
        
    }
    .icon:hover > .path1 {
        fill: #3b5998;
        background-color: white;
    }
</style>
<path class="path1" d="M512 1023.998976a508.841649 508.841649 0 0 1-199.304135-40.24312 510.172846 510.172846 0 0 1-162.730341-109.72138 510.05338 510.05338 0 0 1-109.738447-162.747408A508.722183 508.722183 0 0 1 0.001024 512a508.722183 508.722183 0 0 1 40.226053-199.287068 510.036313 510.036313 0 0 1 109.738447-162.747408 510.172846 510.172846 0 0 1 162.730341-109.72138A508.858716 508.858716 0 0 1 512 0.001024a508.858716 508.858716 0 0 1 199.304135 40.24312 510.172846 510.172846 0 0 1 162.730341 109.72138 510.036313 510.036313 0 0 1 109.738447 162.747408A508.705116 508.705116 0 0 1 1023.998976 512a508.705116 508.705116 0 0 1-40.226053 199.287068 510.05338 510.05338 0 0 1-109.738447 162.747408 510.172846 510.172846 0 0 1-162.730341 109.72138A508.841649 508.841649 0 0 1 512 1023.998976z m0-1006.931319A495.512609 495.512609 0 0 0 17.067657 512a495.512609 495.512609 0 0 0 494.932343 494.932343 495.512609 495.512609 0 0 0 494.932343-494.932343A495.512609 495.512609 0 0 0 512 17.067657z" p-id="25561"></path>
<path d="M552.703919 256.000512a98.47447 98.47447 0 0 0-98.457403 98.457403v59.084682H375.46694v78.762509h78.762509V767.999488h78.762509V492.305106h88.609956l19.694894-78.762509H532.991958v-59.084682a19.694894 19.694894 0 0 1 19.694894-19.694894h98.457403V256.000512z" p-id="25562"></path></svg>