<?xml version="1.0" standalone="no"?>
<!DOCTYPE svg PUBLIC "-//W3C//DTD SVG 20010904//EN"
 "http://www.w3.org/TR/2001/REC-SVG-20010904/DTD/svg10.dtd">
<svg version="1.0" xmlns="http://www.w3.org/2000/svg"
 width="300.000000pt" height="64.000000pt" viewBox="0 0 300.000000 64.000000"
 preserveAspectRatio="xMidYMid meet">
<metadata>
Created by potrace 1.10, written by Peter Selinger 2001-2011
</metadata>
<g transform="translate(0.000000,64.000000) scale(0.050000,-0.050000)" stroke="none">
<path d="M2391 1248 c-601 -192 -605 -1029 -6 -1211 624 -189 1085 554 645
1040 -148 164 -427 239 -639 171z m185 -264 c100 -65 129 -195 71 -317 -79
-166 -352 -171 -437 -8 -122 236 142 470 366 325z"/>
<path d="M330 1222 c-277 -72 -411 -393 -273 -657 143 -275 603 -276 753 -2
188 346 -109 755 -480 659z m233 -219 c78 -70 104 -252 50 -356 -114 -222
-374 -125 -372 138 1 245 167 357 322 218z"/>
<path d="M4486 1220 c-137 -29 -169 -54 -162 -126 7 -71 5 -71 220 -43 139 18
231 -14 249 -84 16 -64 24 -60 -177 -84 -313 -38 -431 -179 -325 -386 92 -176
617 -189 709 -16 43 79 19 544 -31 613 -81 110 -294 166 -483 126z m314 -569
c0 -127 -156 -184 -276 -100 -115 81 -13 187 181 188 l95 1 0 -89z"/>
<path d="M5445 1221 c-346 -87 -427 -598 -128 -803 183 -126 495 -59 612 131
213 344 -94 771 -484 672z m212 -190 c194 -100 120 -496 -93 -496 -145 0 -214
100 -200 291 14 190 146 282 293 205z"/>
<path d="M3365 1207 c-68 -28 135 -605 260 -741 46 -50 52 -37 -103 -224 l-90
-107 57 -49 c148 -127 359 115 560 644 111 293 125 461 41 482 -102 25 -137 4
-165 -102 -71 -267 -154 -509 -169 -494 -9 9 -60 138 -112 286 -118 337 -140
361 -279 305z"/>
<path d="M1005 264 c-24 -16 -34 -62 -28 -129 3 -32 36 -35 399 -35 433 0 444
3 444 114 l0 66 -395 0 c-217 0 -406 -8 -420 -16z"/>
</g>
</svg>
