<?xml version="1.0" encoding="UTF-8"?>
<svg xmlns="http://www.w3.org/2000/svg" xmlns:xlink="http://www.w3.org/1999/xlink" width="70px" height="px" viewBox="0 0 70 70" version="1.1">
<g id="surface1">
<path style=" stroke:none;fill-rule:nonzero;fill-opacity:1;" d="M 0.664062 0.433594 C 0.664062 0.632812 8.019531 8.183594 17 17.132812 L 33.304688 33.4375 L 33.867188 32.636719 C 35.234375 30.742188 37.460938 28.578125 38.894531 27.746094 C 39.722656 27.25 40.457031 26.816406 40.523438 26.78125 C 40.589844 26.714844 39.824219 25.882812 38.859375 24.917969 C 36.132812 22.191406 35.433594 20.496094 35.433594 16.636719 C 35.433594 12.808594 36.132812 11.078125 38.757812 8.449219 C 41.289062 5.921875 43.050781 5.222656 46.945312 5.191406 C 49.90625 5.15625 50.269531 5.222656 52.332031 6.253906 C 54.828125 7.519531 56.824219 9.546875 57.957031 11.945312 C 58.523438 13.175781 58.65625 14.105469 58.6875 16.636719 C 58.6875 20.527344 58.023438 22.222656 55.328125 24.886719 C 54.328125 25.882812 53.566406 26.714844 53.632812 26.75 C 53.699219 26.816406 54.328125 27.179688 55.0625 27.613281 C 59.953125 30.542969 63.3125 37.03125 60.917969 38.960938 C 60.152344 39.589844 59.554688 39.625 50.003906 39.589844 C 44.414062 39.558594 39.824219 39.589844 39.722656 39.65625 C 39.523438 39.890625 68.835938 69.035156 69.367188 69.136719 C 69.800781 69.234375 69.867188 65.210938 69.867188 34.632812 L 69.867188 0 L 35.265625 0 C 7.75 0 0.664062 0.101562 0.664062 0.433594 Z M 0.664062 0.433594 "/>
<path style=" stroke:none;fill-rule:nonzero;fill-opacity:1;" d="M 45.015625 8.285156 C 43.117188 8.785156 41.6875 9.613281 40.457031 10.980469 C 38.824219 12.808594 38.492188 13.675781 38.492188 16.636719 C 38.492188 19.464844 39.160156 21.09375 40.988281 22.855469 C 42.71875 24.488281 44.449219 25.117188 47.078125 25.117188 C 50.703125 25.117188 52.933594 23.820312 54.894531 20.496094 C 55.992188 18.699219 55.992188 14.773438 54.929688 12.777344 C 53.132812 9.347656 48.707031 7.351562 45.015625 8.285156 Z M 43.714844 19.261719 C 44.015625 19.597656 44.914062 20.128906 45.714844 20.429688 C 47.078125 20.960938 47.242188 20.960938 48.605469 20.359375 C 49.40625 19.996094 50.269531 19.464844 50.535156 19.164062 C 51.570312 17.933594 53.429688 19.03125 52.867188 20.5625 C 51.835938 23.253906 46.84375 24.585938 43.785156 22.921875 C 41.453125 21.691406 40.621094 20.429688 41.355469 19.296875 C 41.855469 18.464844 42.984375 18.429688 43.714844 19.261719 Z M 43.714844 19.261719 "/>
<path style=" stroke:none;fill-rule:nonzero;fill-opacity:1;" d="M 43.25 28.910156 C 42.984375 29.042969 42.152344 29.476562 41.421875 29.808594 C 39.757812 30.609375 37.726562 32.40625 36.730469 34 C 35.730469 35.566406 35.730469 36.132812 36.695312 36.398438 C 37.996094 36.730469 58.15625 36.628906 58.390625 36.265625 C 58.988281 35.300781 55.261719 31.007812 52.734375 29.808594 C 52 29.476562 51.136719 29.042969 50.835938 28.910156 C 50.105469 28.546875 43.917969 28.546875 43.25 28.910156 Z M 43.25 28.910156 "/>
</g>
</svg>
