<?xml version="1.0" standalone="no"?>
<!DOCTYPE svg PUBLIC "-//W3C//DTD SVG 20010904//EN"
 "http://www.w3.org/TR/2001/REC-SVG-20010904/DTD/svg10.dtd">
<svg version="1.0" xmlns="http://www.w3.org/2000/svg" fill="green"
 width="210.000000pt" height="210.000000pt" viewBox="0 0 210.000000 210.000000"
 preserveAspectRatio="xMidYMid meet">
<metadata>
Created by potrace 1.10, written by Peter Selinger 2001-2011
</metadata>
<g transform="translate(0.000000,210.000000) scale(0.100000,-0.100000)" stroke="none">
<path d="M20 2087 c0 -6 221 -233 491 -502 l490 -490 17 24 c41 57 108 122
151 147 25 15 47 28 49 29 2 2 -21 27 -50 56 -82 82 -103 133 -103 249 0 115
21 167 100 246 76 76 129 97 246 98 89 1 100 -1 162 -32 75 -38 135 -99 169
-171 17 -37 21 -65 22 -141 0 -117 -20 -168 -101 -248 -30 -30 -53 -55 -51
-56 2 -2 21 -13 43 -26 147 -88 248 -283 176 -341 -23 -19 -41 -20 -328 -19
-168 1 -306 0 -309 -2 -6 -7 875 -883 891 -886 13 -3 15 118 15 1037 l0 1041
-1040 0 c-827 0 -1040 -3 -1040 -13z"/>
<path d="M1353 1851 c-57 -15 -100 -40 -137 -81 -49 -55 -59 -81 -59 -170 0
-85 20 -134 75 -187 52 -49 104 -68 183 -68 109 0 176 39 235 139 33 54 33
172 1 232 -54 103 -187 163 -298 135z m-39 -330 c9 -10 36 -26 60 -35 41 -16
46 -16 87 2 24 11 50 27 58 36 31 37 87 4 70 -42 -31 -81 -181 -121 -273 -71
-70 37 -95 75 -73 109 15 25 49 26 71 1z"/>
<path d="M1300 1231 c-8 -4 -33 -17 -55 -27 -50 -24 -111 -78 -141 -126 -30
-47 -30 -64 -1 -72 39 -10 645 -7 652 4 18 29 -94 158 -170 194 -22 10 -48 23
-57 27 -22 11 -208 11 -228 0z"/>
</g>
</svg>
