<svg t="1596469555455" class="qqzone shareStyle" viewBox="0 0 1024 1024" version="1.1" xmlns="http://www.w3.org/2000/svg" p-id="28406" width="42" height="42" onclick="qqZoneShare()">
<style>
    .qqzone {
        fill: #ffcd00;
        background-color: white;
    }
    .qqzone:hover {
        fill: white !important;
        background-color: #ffcd00;
        
    }
    .qqzone:hover > .pathqqzone {
        fill: #ffcd00;
        background-color: white;
    }
</style>
<path class="pathqqzone" d="M512 1003.52c272.384 0 491.52-219.136 491.52-491.52S784.384 20.48 512 20.48 20.48 239.616 20.48 512 239.616 1003.52 512 1003.52z m0 20.48C229.376 1024 0 794.624 0 512S229.376 0 512 0s512 229.376 512 512-229.376 512-512 512z" p-id="28407"></path>
<path d="M819.2 425.984c-6.144-16.384-212.992-30.72-212.992-30.72S530.432 204.8 512 204.8c-18.432 0-94.208 190.464-94.208 190.464S210.944 409.6 204.8 425.984c-6.144 16.384 153.6 147.456 153.6 147.456s-47.104 200.704-36.864 208.896C331.776 790.528 512 684.032 512 684.032s178.176 110.592 190.464 98.304c8.192-8.192-16.384-122.88-28.672-178.176 0-2.048-69.632 8.192-145.408 8.192-67.584 0-143.36-4.096-143.36-4.096l176.128-131.072s-55.296-10.24-96.256-14.336c-59.392-6.144-112.64-6.144-104.448-6.144 10.24-2.048 81.92-10.24 153.6-6.144 65.536 2.048 129.024 14.336 129.024 14.336L466.944 589.824s38.912 6.144 69.632 6.144c61.44 2.048 135.168 0 135.168 0-2.048-10.24-4.096-22.528-4.096-22.528S825.344 442.368 819.2 425.984z" p-id="28408"></path>

</svg>
