<svg t="1596503188175" class="icon" viewBox="0 0 1025 1024" version="1.1" xmlns="http://www.w3.org/2000/svg" p-id="11122" width="42" height="42">
<style>
    .icon {
        fill: #7bd4ef;
        background-color: white;
    }
    .icon:hover {
        fill: white !important;
        background-color: #7bd4ef;
        
    }
    .icon:hover > .path1 {
        fill: #7bd4ef;
        background-color: white;
    }
</style>
<path class="path1" d="M517.302 3C236.944 3 9.664 230.276 9.664 510.638c0 280.362 227.28 507.637 507.638 507.637 280.361 0 507.643-227.275 507.643-507.637C1024.945 230.276 797.664 3 517.302 3zM517.302 989.971c-264.726 0-479.331-214.604-479.331-479.333 0-264.729 214.605-479.329 479.331-479.329 264.727 0 479.336 214.6 479.336 479.329C996.638 775.367 782.029 989.971 517.302 989.971z" p-id="11123"></path>
<path d="M766.986 569.263l-1.749-9.323-1.165-4.661-1.167-4.661-1.747-4.662-1.748-5.244-2.33-5.244-2.332-5.244-4.078-8.157-3.496-7.575-3.496-6.41-2.913-5.827-3.496-5.826-2.331-4.662-5.244-8.158-6.992-9.906-1.749-2.912-0.582-0.583 0-1.166 1.166-3.496 1.165-2.914 1.747-5.827 0.583-3.496 0-2.914 0.583-2.331 0-2.913-0.583-2.913-0.583-2.914-0.582-4.662-1.165-4.661-1.749-4.662-1.748-4.079-1.748-3.497-1.747-3.496-1.748-2.914-3.496-5.245-0.582-1.747-0.584-1.166-1.164-9.323-1.166-5.826-0.583-7.575-1.748-7.575-2.331-8.741-1.164-5.243-1.165-4.079-1.749-4.661-1.748-5.245-1.749-5.243-1.747-5.245-4.661-9.905-2.33-4.662-3.498-5.244-2.912-4.662-2.914-5.243-4.078-5.245-3.497-4.661-4.079-4.662-4.661-4.661-4.079-4.079-5.243-4.08-2.914-2.331-2.33-1.748-5.827-4.079-6.41-4.079-6.408-4.079-7.575-3.497-6.992-2.914-6.992-2.913-7.576-2.914-7.573-1.748-7.575-1.748-8.157-1.748-7.575-1.748-7.575-1.165-8.157-0.583-7.576-1.166-8.157 0-7.575 0-7.574 0-7.575 0.583-7.574 1.167-7.575 0.582-7.575 1.166-6.992 1.165-6.991 1.748-6.992 2.331-6.993 2.332-6.409 2.33-6.41 2.914-5.825 2.331-5.828 3.497-5.826 3.496-5.245 3.496-5.243 4.08-4.662 3.496L410.383 282l-5.827 5.245-5.244 5.826-4.661 5.827-4.661 5.828-4.078 5.243-3.497 5.827-2.331 2.914-1.748 2.913-3.496 5.245-2.913 5.244-2.331 5.244-2.33 5.245-2.331 4.661-1.748 4.661-1.748 5.244-1.748 4.079-1.748 8.158-2.331 8.158-0.582 6.409-1.166 5.827 0 4.079 0 3.496 0 3.497-1.165 1.748-1.748 1.748-1.166 2.331-0.582 2.33-1.749 4.662-1.165 4.661-0.582 3.496 0 3.497 0 2.913-3.497 4.079-1.747 4.662-2.331 4.078-1.165 4.079-0.583 3.497-1.165 3.496 0 2.914 0 3.496 0 2.331 0.583 2.331 1.165 4.079 0.583 2.914-1.748 1.165-4.662 3.497-6.409 5.827-4.079 3.496-4.078 3.497-2.914 2.331-1.748 2.33-4.661 5.245-4.662 4.662-3.495 4.662-4.079 5.827-4.079 5.826-4.078 6.41-3.497 5.244-2.913 6.41-2.913 5.826-1.748 5.244-2.331 5.827-1.748 5.826-1.748 5.827-1.748 5.244-0.582 5.244-0.583 5.244-1.165 4.661-0.583 9.323 0 8.74 0 4.079 0.583 4.078 0.581 6.41 0.584 3.496 1.165 2.913 0.583 2.914 0.582 1.748 2.331 3.496 0.582 1.165 1.166 1.164 1.165 0 1.166 0.584 1.165 0 1.748-0.584 4.661-1.164 3.497-1.165 3.496-2.33 2.913-2.332 3.495-2.33 2.914-2.914 2.331-2.914 2.913-2.912 2.331-2.913 1.748-2.914 1.165-2.331 2.913-5.244 0.583-1.747 0.583-1.166 0.582-1.166 0.583-1.164 0.583 0 0.583-0.583 0.582 0 0 0.583 0.582 0 0.584 0 1.165 6.408 1.748 5.244 2.33 5.245 2.331 4.66 1.748 4.662 2.331 4.662 2.33 4.079 2.331 4.079 2.331 3.495 2.33 3.497 5.245 6.408 4.661 5.245 4.661 4.661 4.079 4.078 4.079 2.914 5.827 1.747 2.33 1.165 0.582 0.584 0 0.583-0.582 0.581-1.166 0.584-4.078 0.582-4.079 0-3.496 0.583-3.496 0.583-3.496 1.165-2.914 1.165-2.33 1.166-2.331 1.165-2.33 0.583-2.331 1.748-1.165 1.166-2.331 1.164-2.331 2.914-1.165 1.748-1.165 1.165-1.166 2.914-0.582 2.912-1.166 2.332-0.582 2.33 0 2.913 0 1.166-0.583 2.33 0 2.33 0 2.332 0 1.748 0 2.331 0.583 1.165 1.748 3.496 0.582 1.747 0.583 2.331 1.748 1.748 1.165 1.166 1.748 1.747 1.166 1.167 4.078 2.329 4.079 2.914 4.078 2.33 5.245 1.748 5.244 1.748 5.244 1.749 5.826 1.747 5.827 1.167 6.409 0.581 5.827 1.166 6.993 1.166 12.817 1.165 12.82 0.582 12.236 0 5.826 0 5.828 0 5.243-0.582 4.661-0.583 5.245-0.582 4.078 0 6.993-1.748 5.243-1.165 5.244-1.167 8.74-3.496 4.079-1.748 4.078-1.748 6.41-3.495 5.826-2.914 4.078-2.913 3.497-2.331 4.662 0 3.495 0.583 7.576 0.583 3.496 0 2.912 0 2.331 0.582 2.33 0.583 4.08 1.165 3.496 1.748 8.157 2.331 7.575 2.913 8.157 1.748 7.574 1.749 8.158 1.747 8.158 1.749 8.157 0.582 7.573 0.582 7.576 1.167 7.574 0.581 7.576 0 7.573 0 6.992 0 6.993-1.164 6.992-0.584 6.41-0.582 6.408-1.165 5.827-1.749 5.826-1.164 2.332-0.584 2.914-1.165 5.243-1.748 4.079-2.33 4.662-1.748 4.078-2.33 3.495-2.332 1.167-1.748 1.747-1.748 2.331-2.331 1.747-2.913 1.166-2.33 0.582-1.165 0.584-1.749 0.582-1.748 0-1.747 0.582-1.748-0.582-2.332-0.582-2.33-0.584-2.33-1.165-2.332-1.165-2.913-1.748-1.747-1.748-2.332-2.33-1.748-4.662-4.078-5.244-4.079-5.243-2.913-5.828-2.914-12.818-6.409-2.549-1.529 4.298-4.297 2.912-2.914 2.331-2.913 4.078-5.826 4.079-6.41 3.497-5.827 2.913-5.245 4.661-10.487 3.496-8.74 1.748-5.827 1.747-2.33 0.584-1.748 1.164-0.583 0.584 0 0.582 0 2.913 6.409 2.913 5.828 2.332 3.495 2.33 3.496 2.331 3.496 2.331 3.496 2.33 2.331 1.165 1.164 1.166 1.749 1.748 0.584 1.164 1.164 2.332 1.165 1.748 0.583 0.582 0 1.166 0 1.747-0.583 1.749-1.165 1.748-0.583 1.747-1.165 1.167-1.749 1.747-1.746 1.166-1.749 1.165-2.33 1.747-2.332 1.167-2.33 0.581-2.913 1.749-5.827 1.748-6.41 0.582-6.991 0.583-4.078 0-3.497 0-3.496 0-4.661-1.165-8.158L766.986 569.263zM680.748 670.649l-0.582-0.582 0.971-0.971L680.748 670.649z" p-id="11124"></path></svg>