<?xml version="1.0" standalone="no"?>
<!DOCTYPE svg PUBLIC "-//W3C//DTD SVG 20010904//EN"
 "http://www.w3.org/TR/2001/REC-SVG-20010904/DTD/svg10.dtd">
<svg version="1.0" xmlns="http://www.w3.org/2000/svg"
 width="210.000000pt" height="210.000000pt" viewBox="0 0 210.000000 210.000000"
 preserveAspectRatio="xMidYMid meet" id="qr_code">
<metadata>
Created by potrace 1.10, written by Peter Selinger 2001-2011
</metadata>
<g transform="translate(0.000000,210.000000) scale(0.100000,-0.100000)" stroke="none">
<path d="M20 2084 c0 -8 30 -44 68 -79 l67 -64 236 -1 c169 0 238 -3 247 -12
9 -9 12 -78 12 -248 l1 -235 64 -69 c35 -37 67 -66 72 -63 4 3 7 181 5 396
l-2 391 -385 0 c-342 0 -385 -2 -385 -16z"/>
<path d="M968 2028 c-2 -41 1 -76 7 -80 6 -4 35 -8 65 -8 30 0 60 4 65 8 6 4
9 39 7 80 l-4 72 -68 0 -68 0 -4 -72z"/>
<path d="M1290 1695 l0 -405 405 0 405 0 0 405 0 405 -405 0 -405 0 0 -405z
m648 1 c2 -167 -1 -243 -9 -252 -16 -19 -468 -21 -487 -2 -17 17 -17 469 0
486 9 9 74 12 253 10 l240 -3 3 -239z"/>
<path d="M1589 1789 c-6 -3 -8 -50 -7 -105 l3 -99 104 0 104 0 0 100 0 100
-97 5 c-54 3 -102 2 -107 -1z"/>
<path d="M305 1792 c-3 -4 183 -192 190 -192 8 0 5 190 -2 190 -134 4 -185 4
-188 2z"/>
<path d="M980 1751 c-11 -7 -14 -24 -12 -70 l4 -62 70 3 70 3 1 62 c2 54 0 63
-18 67 -31 9 -98 6 -115 -3z"/>
<path d="M968 1423 c-2 -4 -1 -74 2 -155 l5 -148 75 -75 74 -75 71 0 c42 0 76
-5 83 -12 7 -7 12 -41 12 -84 l0 -72 77 -76 77 -76 232 0 c128 0 239 -3 248
-6 14 -5 16 -37 16 -248 l1 -241 63 -67 c35 -38 71 -68 80 -68 14 0 16 36 16
385 l0 385 -77 0 c-43 0 -84 4 -92 9 -9 6 -14 31 -15 72 -3 90 7 99 106 99
l78 0 0 70 0 70 -162 -2 -163 -3 3 -57 c5 -87 -5 -98 -88 -98 -77 0 -74 3 -70
-72 3 -76 -9 -88 -90 -88 -100 0 -100 0 -100 85 0 48 4 77 13 82 6 4 44 10 82
13 l70 5 0 65 0 65 -149 3 c-94 2 -155 7 -163 14 -10 8 -14 31 -12 73 1 34 -1
66 -4 72 -3 5 -30 8 -60 5 -32 -2 -63 1 -76 8 -21 11 -22 18 -19 78 l3 67 -72
3 c-39 2 -73 -1 -75 -5z"/>
<path d="M1600 496 c0 -5 188 -196 193 -196 2 0 2 44 1 98 l-1 97 -97 3 c-53
1 -96 1 -96 -2z"/>
</g>
</svg>
