<svg t="1596506020224" class="icon" viewBox="0 0 1024 1024" version="1.1" xmlns="http://www.w3.org/2000/svg" p-id="40598" width="42" height="42">
<style>
    .icon {
        fill: #1da1f2;
        background-color: white;
    }
    .icon:hover {
        fill: white !important;
        background-color: #1da1f2;
        
    }
    .icon:hover > .path1 {
        fill: #1da1f2;
        background-color: white;
    }
</style>
<path class="path1" d="M512 0c282.773333 0 512 229.226667 512 512S794.773333 1024 512 1024 0 794.773333 0 512 229.226667 0 512 0z m0 10.666667C235.114667 10.666667 10.666667 235.114667 10.666667 512S235.114667 1013.333333 512 1013.333333 1013.333333 788.885333 1013.333333 512 788.885333 10.666667 512 10.666667z" p-id="40599"></path>
<path d="M806.4 352c-20.394667 9.066667-42.346667 15.189333-65.365333 17.92a114.261333 114.261333 0 0 0 50.048-62.933333 227.946667 227.946667 0 0 1-72.256 27.605333A113.664 113.664 0 0 0 635.733333 298.666667a113.792 113.792 0 0 0-110.848 139.733333 323.093333 323.093333 0 0 1-234.538666-118.912 113.28 113.28 0 0 0-15.402667 57.216c0 39.466667 20.074667 74.304 50.624 94.72a113.344 113.344 0 0 1-51.541333-14.229333l-0.021334 1.429333a113.856 113.856 0 0 0 91.264 111.573333 114.005333 114.005333 0 0 1-51.392 1.941334 113.92 113.92 0 0 0 106.304 79.018666 228.309333 228.309333 0 0 1-141.333333 48.704c-9.173333 0-18.218667-0.533333-27.136-1.578666a322.026667 322.026667 0 0 0 174.442667 51.114666c209.301333 0 323.754667-173.397333 323.754666-323.776 0-4.928-0.106667-9.834667-0.32-14.72a231.338667 231.338667 0 0 0 56.768-58.88h0.021334z" p-id="40600"></path></svg>