<svg t="1596465877278" class="icon" viewBox="0 0 1024 1024" version="1.1" xmlns="http://www.w3.org/2000/svg" p-id="6176" width="42" height="42" style="enable-background:new 0 0 97.75 97.75;">

<style>
    .icon {
        fill: #62b900;
        background-color: white;
    }
    .icon:hover {
        fill: white !important;
        background-color: #62b900;
        
    }
    .icon:hover > .path2 {
        fill: #62b900;
        background-color: white;
    }
</style>
<path class="path2" d="M512 1002.666667c270.997333 0 490.666667-219.669333 490.666667-490.666667S782.997333 21.333333 512 21.333333 21.333333 241.002667 21.333333 512s219.669333 490.666667 490.666667 490.666667z m0 21.333333C229.226667 1024 0 794.773333 0 512S229.226667 0 512 0s512 229.226667 512 512-229.226667 512-512 512z" p-id="6177"></path>
<path class="path1" d="M676.437333 545.749333c-9.706667 0-19.498667-9.834667-19.498666-19.904 0-9.898667 9.792-19.882667 19.498666-19.882666 14.72 0 24.554667 9.984 24.554667 19.882666 0 10.069333-9.856 19.904-24.554667 19.904m-107.968 0c-9.813333 0-19.648-9.834667-19.648-19.904 0-9.898667 9.856-19.882667 19.626667-19.882666 14.869333 0 24.576 9.984 24.576 19.882666 0 10.069333-9.706667 19.904-24.554667 19.904M789.333333 570.624c0-79.424-78.549333-144.213333-166.741333-144.213333-93.376 0-166.997333 64.768-166.997333 144.213333 0 79.573333 73.578667 144.213333 166.997333 144.213333 19.541333 0 39.253333-5.013333 58.922667-9.962666l53.824 29.824-14.762667-49.642667C759.978667 655.125333 789.333333 615.445333 789.333333 570.624m-422.101333-159.082667c-14.698667 0-29.568-9.984-29.568-24.874666 0-14.933333 14.848-24.768 29.568-24.768s24.533333 9.813333 24.533333 24.768c-0.042667 14.890667-9.813333 24.874667-24.533333 24.874666m137.386667-49.706666c14.762667 0 24.533333 9.856 24.533333 24.810666 0 14.869333-9.770667 24.853333-24.533333 24.853334-14.72 0-29.482667-9.984-29.482667-24.853334 0-14.954667 14.784-24.789333 29.482667-24.789333m105.557333 53.845333c6.378667 0 12.672 0.490667 18.901333 1.194667C612.096 336.853333 527.530667 277.333333 430.976 277.333333 323.072 277.333333 234.666667 351.786667 234.666667 446.336c0 54.570667 29.397333 99.413333 78.549333 134.186667l-19.648 59.754666 68.629333-34.837333c24.533333 4.906667 44.266667 9.962667 68.736 9.962667 6.165333 0 12.288-0.32 18.346667-0.789334a149.696 149.696 0 0 1-6.058667-41.642666c0.042667-86.784 73.706667-157.269333 166.954667-157.269334" p-id="6178"></path>
</svg>