<svg t="1596469361729" class="weibo shareStyle" viewBox="0 0 1024 1024" version="1.1" xmlns="http://www.w3.org/2000/svg" p-id="26397" width="43" height="43">
<style>
    .weibo {
        fill: #d32024;
        background-color: white;
    }
    .weibo:hover {
        fill: white !important;
        background-color: #d32024;
        
    }
    .weibo:hover > .pathweibo {
        fill: #d32024;
        background-color: white;
    }
</style>
<path class="pathweibo" d="M844.8 161.6128C757.76 74.5728 637.44 20.8128 501.76 20.8128S245.76 74.5728 158.72 161.6128C71.68 248.6528 17.92 368.9728 17.92 504.6528s53.76 256 140.8 343.04c87.04 87.04 207.36 140.8 343.04 140.8s253.44-53.76 343.04-140.8c87.04-87.04 140.8-209.92 140.8-343.04 0-133.12-53.76-256-140.8-343.04M501.76 2.8928c138.24 0 263.68 56.32 355.84 145.92 89.6 89.6 145.92 215.04 145.92 355.84 0 138.24-56.32 263.68-145.92 355.84-89.6 89.6-215.04 145.92-355.84 145.92S238.08 950.0928 145.92 860.4928C56.32 768.3328 0 642.8928 0 504.6528S56.32 240.9728 145.92 148.8128C238.08 59.2128 363.52 2.8928 501.76 2.8928" p-id="26398"></path>
<path d="M660.48 453.12c-2.56-7.68-5.12-15.36-7.68-20.48-5.12-10.24-12.8-17.92-20.48-25.6-7.68-7.68-17.92-12.8-28.16-15.36-7.68-2.56-17.92-2.56-25.6-2.56H563.2c-2.56 0-5.12-2.56-7.68-5.12-2.56-2.56-5.12-7.68-5.12-12.8s0-10.24 5.12-12.8c2.56-2.56 7.68-5.12 12.8-7.68 15.36-2.56 33.28 0 46.08 5.12 15.36 5.12 30.72 12.8 40.96 23.04 12.8 10.24 23.04 23.04 30.72 35.84 5.12 10.24 10.24 23.04 12.8 35.84 2.56 7.68 2.56 17.92-2.56 25.6-2.56 2.56-7.68 5.12-12.8 7.68-5.12 0-10.24-2.56-12.8-5.12-2.56-2.56-5.12-5.12-5.12-7.68-2.56-5.12-5.12-15.36-5.12-17.92m-104.96-140.8c-5.12 0-7.68-2.56-10.24-5.12-2.56-2.56-5.12-7.68-5.12-12.8s2.56-10.24 5.12-12.8c5.12-7.68 15.36-7.68 23.04-7.68 23.04 0 43.52 2.56 64 7.68 25.6 7.68 48.64 20.48 66.56 35.84 25.6 20.48 43.52 46.08 56.32 74.24 10.24 25.6 17.92 56.32 15.36 84.48 0 7.68 0 15.36-7.68 20.48-2.56 2.56-7.68 5.12-12.8 5.12s-10.24-2.56-12.8-7.68c-2.56-2.56-5.12-7.68-5.12-12.8 2.56-25.6-2.56-51.2-12.8-76.8-10.24-23.04-25.6-43.52-46.08-61.44-15.36-12.8-35.84-23.04-53.76-28.16-17.92-5.12-38.4-7.68-58.88-5.12 0 2.56-2.56 5.12-5.12 2.56M581.12 616.96c-23.04 56.32-110.08 94.72-197.12 84.48-84.48-10.24-135.68-64-112.64-122.88 23.04-56.32 110.08-94.72 197.12-84.48 87.04 12.8 135.68 66.56 112.64 122.88m25.6-112.64c15.36-40.96 17.92-79.36-33.28-81.92-51.2-2.56-117.76 25.6-110.08-10.24 33.28-158.72-256 7.68-235.52 186.88 15.36 148.48 263.68 184.32 417.28 48.64 122.88-104.96-61.44-81.92-38.4-143.36" p-id="26399"></path>
<path d="M435.2 601.6c-5.12 0-10.24-2.56-10.24-5.12 0-5.12 2.56-7.68 10.24-10.24 5.12 0 10.24 2.56 10.24 5.12 0 5.12-5.12 10.24-10.24 10.24m-43.52 46.08c-15.36 2.56-28.16-5.12-30.72-17.92 0-12.8 10.24-25.6 25.6-28.16 15.36-2.56 28.16 5.12 30.72 17.92 2.56 12.8-10.24 25.6-25.6 28.16m110.08-53.76c-2.56-38.4-46.08-61.44-92.16-53.76-48.64 10.24-84.48 46.08-79.36 84.48 2.56 38.4 46.08 61.44 92.16 53.76 46.08-7.68 81.92-46.08 79.36-84.48" p-id="26400"></path></svg>