<?xml version="1.0" encoding="iso-8859-1"?>
<!DOCTYPE svg PUBLIC "-//W3C//DTD SVG 1.1//EN" "http://www.w3.org/Graphics/SVG/1.1/DTD/svg11.dtd">
<svg version="1.1" id="Capa_1" xmlns="http://www.w3.org/2000/svg" xmlns:xlink="http://www.w3.org/1999/xlink" x="0px" y="0px"
	 width="42px" height="42px" viewBox="0 0 97.75 97.75" style="enable-background:new 0 0 97.75 97.75;"  xml:space="preserve"
	>
    <style type="text/css">
        #Capa_1 {
            fill: white;
            background-color: #d32024;
        }
        #Capa_1:hover {
            fill:#d32024;
            background-color: white;
        }
    </style>
<g>
	<g>
		<path d="M48.875,0C21.883,0,0,21.883,0,48.875S21.883,97.75,48.875,97.75S97.75,75.867,97.75,48.875S75.867,0,48.875,0z
			 M43.332,76.779c-14.294,0-28.904-6.928-28.904-18.32c0-5.957,3.773-12.844,10.271-19.344c8.68-8.674,18.799-12.627,22.604-8.818
			c1.679,1.678,1.841,4.582,0.763,8.051c-0.563,1.748,1.639,0.779,1.639,0.783c7.016-2.938,13.135-3.109,15.37,0.086
			c1.192,1.703,1.079,4.09-0.021,6.859c-0.509,1.273,0.157,1.473,1.127,1.762c3.952,1.227,8.351,4.189,8.351,9.412
			C74.531,65.893,62.068,76.779,43.332,76.779z M69.206,40.553c0.463-1.428,0.172-3.055-0.905-4.25
			c-1.076-1.191-2.668-1.645-4.136-1.334v-0.002c-1.224,0.266-2.431-0.52-2.69-1.742c-0.266-1.229,0.518-2.436,1.744-2.697
			c3.002-0.637,6.254,0.291,8.455,2.732c2.208,2.443,2.797,5.771,1.854,8.689c-0.385,1.195-1.664,1.846-2.857,1.465
			c-1.193-0.389-1.846-1.67-1.461-2.861H69.206z M82.438,44.828c0,0.002,0,0.008,0,0.01c-0.449,1.383-1.937,2.141-3.321,1.693
			c-1.39-0.447-2.148-1.932-1.699-3.32l-0.001-0.004c1.377-4.26,0.504-9.119-2.71-12.682c-3.218-3.563-7.96-4.926-12.343-3.994
			c-1.426,0.305-2.826-0.605-3.131-2.029s0.604-2.826,2.029-3.131h0.002c6.16-1.309,12.834,0.602,17.357,5.619
			C83.148,32,84.37,38.832,82.438,44.828z"/>
		<path d="M43.444,57.424c-0.678-0.27-1.526,0.057-1.924,0.723c-0.386,0.672-0.173,1.435,0.507,1.713
			c0.69,0.285,1.573-0.043,1.972-0.727C44.38,58.447,44.133,57.676,43.444,57.424z"/>
		<path d="M40.688,45.58c-11.402,1.129-20.051,8.111-19.311,15.598c0.741,7.488,10.588,12.643,21.991,11.518
			c11.405-1.127,20.05-8.11,19.312-15.602C61.939,49.607,52.096,44.451,40.688,45.58z M50.695,63.24
			c-2.327,5.264-9.021,8.07-14.702,6.24c-5.482-1.771-7.803-7.187-5.402-12.063c2.356-4.783,8.492-7.487,13.918-6.074
			C50.126,52.795,52.992,58.094,50.695,63.24z"/>
		<path d="M39.091,59.229c-1.767-0.739-4.049,0.021-5.138,1.73c-1.104,1.715-0.587,3.76,1.167,4.559
			c1.779,0.813,4.141,0.041,5.244-1.719C41.448,62.02,40.876,59.99,39.091,59.229z"/>
        
	</g>
</g>
<g>
</g>
<g>
</g>
<g>
</g>
<g>
</g>
<g>
</g>
<g>
</g>
<g>
</g>
<g>
</g>
<g>
</g>
<g>
</g>
<g>
</g>
<g>
</g>
<g>
</g>
<g>
</g>
<g>
</g>
</svg>


<svg t="1596467352340" class="icon" viewBox="0 0 1024 1024" version="1.1" xmlns="http://www.w3.org/2000/svg" p-id="8082" width="42" height="42">

<path  d="M512 67C266.265 67 67 266.262 67 512.008S266.236 956.985 512 957c245.735-0.015 445-199.262 445-445.008C957 266.248 757.765 67 512 67zM512 927.32c-229.019 0-415.333-186.298-415.333-415.313 0-229.03 186.314-415.341 415.333-415.313 229.019-0.014 415.334 186.283 415.334 415.313C927.334 741.022 741.019 927.32 512 927.32z" p-id="8083"></path>
<path d="M663.477 502.766c-12.588 0-30.246-11.342-20.149-22.669 10.082-11.328 11.343-62.998-31.507-70.544-42.805-7.576-74.312 7.533-84.394 11.328-10.096 3.795-36.532 1.26-25.19-15.123 11.343-16.368 10.067-64.257-39.053-64.257-49.15 0-116.017 37.619-179.377 112.726-40.748 48.323-77.31 112.219-52.901 176.984 17.296 45.86 67.518 81.204 110.815 98.428 35.49 14.124 79.526 16.297 117.682 16.297 151.173 0 260.786-104.571 263.292-163.788C725.229 522.93 676.094 502.766 663.477 502.766zM463.386 702.056c-97.575 9.923-181.665-31.172-187.807-91.808-6.186-60.622 67.924-117.81 165.455-127.733 97.576-9.923 181.665 31.172 187.822 91.809C635.013 634.945 560.933 692.135 463.386 702.056z" p-id="8084"></path>
<path d="M420.726 533.721c-51.076 10.69-85.943 50.729-77.831 89.463 8.083 38.748 56.03 61.505 107.121 50.844 51.105-10.676 85.929-50.728 77.846-89.463C519.778 545.831 471.802 523.06 420.726 533.721zM408.108 648.895c-21.019 0-38.039-12.762-38.039-28.521 0-15.774 17.021-28.536 38.039-28.536s38.04 12.762 38.04 28.536C446.148 636.133 429.127 648.895 408.108 648.895zM466.964 599.731c-8.865 0-16.021-7.171-16.021-16.007 0-8.821 7.156-15.977 16.021-15.977 8.808 0 15.978 7.155 15.978 15.977C482.941 592.561 475.771 599.731 466.964 599.731z" p-id="8085"></path><path d="M706.268 472.969c4.766-10.299 7.171-21.308 7.171-32.723 0-43.036-35.013-78.077-78.063-78.077-7.722 0-15.384 1.145-22.772 3.375l5.853 19.164c5.476-1.666 11.183-2.506 16.92-2.506 32.013 0 58.044 26.045 58.044 58.043 0 8.488-1.782 16.673-5.331 24.321L706.268 472.969z" p-id="8086"></path>
<path d="M634.983 278.068c-16.253 0-32.303 2.346-47.716 6.981l7.691 25.582c12.907-3.882 26.379-5.852 40.024-5.852 76.817 0 139.28 62.476 139.28 139.277 0 16.948-2.999 33.49-8.909 49.193l24.974 9.415c7.069-18.715 10.646-38.43 10.646-58.608C800.975 352.537 726.504 278.068 634.983 278.068z" p-id="8087"></path></svg>
